<?xml version="1.0" standalone="no"?>
<!DOCTYPE svg PUBLIC "-//W3C//DTD SVG 20010904//EN"
 "http://www.w3.org/TR/2001/REC-SVG-20010904/DTD/svg10.dtd">
<svg version="1.0" xmlns="http://www.w3.org/2000/svg"
 width="835.000000pt" height="835.000000pt" viewBox="0 0 835.000000 835.000000"
 preserveAspectRatio="xMidYMid meet">
<metadata>
Created by potrace 1.11, written by Peter Selinger 2001-2013
</metadata>
<g transform="translate(0.000000,835.000000) scale(0.100000,-0.100000)"
fill="#000000" stroke="none">
<path d="M3774 7635 c-5 -12 -26 -15 -99 -15 -52 0 -97 -4 -100 -10 -3 -5 -33
-10 -66 -10 -44 0 -61 -4 -65 -15 -4 -10 -20 -15 -49 -15 -24 0 -47 -4 -50
-10 -3 -5 -24 -10 -46 -10 -26 0 -42 -5 -45 -15 -4 -9 -19 -15 -39 -15 -19 0
-37 -4 -40 -10 -3 -5 -17 -10 -30 -10 -13 0 -30 -7 -39 -15 -8 -8 -24 -15 -35
-15 -12 0 -21 -4 -21 -10 0 -5 -11 -10 -25 -10 -14 0 -25 -4 -25 -10 0 -5 -11
-12 -25 -16 -14 -3 -25 -10 -25 -15 0 -5 -11 -9 -25 -9 -14 0 -25 -4 -25 -10
0 -5 -11 -12 -25 -16 -14 -3 -25 -10 -25 -15 0 -5 -7 -9 -15 -9 -8 0 -15 -4
-15 -9 0 -5 -10 -13 -22 -17 -13 -4 -30 -15 -38 -24 -8 -9 -25 -20 -37 -24
-13 -4 -23 -12 -23 -17 0 -5 -5 -9 -10 -9 -6 0 -23 -11 -38 -25 -15 -14 -31
-25 -36 -25 -5 0 -23 -16 -42 -35 -18 -19 -37 -35 -42 -35 -5 0 -32 -22 -61
-50 -29 -27 -56 -50 -62 -50 -5 0 -9 -5 -9 -11 0 -14 -25 -39 -39 -39 -6 0
-11 -7 -11 -15 0 -8 -6 -15 -13 -15 -22 0 -307 -289 -307 -311 0 -5 -5 -9 -11
-9 -13 0 -39 -25 -39 -38 0 -5 -11 -15 -25 -22 -14 -7 -25 -18 -25 -24 0 -7
-9 -18 -20 -26 -11 -8 -34 -36 -52 -62 -18 -26 -36 -48 -40 -48 -5 0 -8 -7 -8
-15 0 -8 -5 -15 -11 -15 -14 0 -39 -25 -39 -39 0 -6 -4 -11 -10 -11 -5 0 -17
-16 -26 -35 -9 -19 -23 -35 -30 -35 -8 0 -14 -5 -14 -10 0 -6 -11 -22 -25 -36
-14 -14 -25 -30 -25 -35 0 -6 -16 -25 -35 -43 -19 -19 -35 -40 -35 -48 0 -8
-11 -24 -25 -34 -14 -10 -25 -24 -25 -31 0 -7 -4 -13 -9 -13 -5 0 -13 -10 -17
-22 -3 -12 -17 -32 -30 -45 -13 -13 -24 -30 -24 -38 0 -8 -4 -15 -10 -15 -5 0
-10 -7 -10 -15 0 -8 -4 -15 -10 -15 -5 0 -12 -11 -16 -25 -3 -14 -9 -25 -14
-25 -4 0 -15 -16 -26 -35 -10 -19 -22 -35 -26 -35 -5 0 -8 -8 -8 -19 0 -10
-11 -30 -25 -45 -14 -15 -25 -33 -25 -41 0 -8 -5 -17 -10 -20 -5 -3 -10 -15
-10 -26 0 -10 -6 -19 -12 -19 -13 0 -38 -44 -38 -66 0 -6 -7 -14 -15 -18 -8
-3 -15 -15 -15 -26 0 -11 -4 -20 -10 -20 -5 0 -10 -11 -10 -25 0 -16 -6 -25
-15 -25 -9 0 -15 -9 -15 -25 0 -14 -4 -25 -10 -25 -5 0 -10 -11 -10 -25 0 -16
-6 -25 -15 -25 -9 0 -15 -9 -15 -25 0 -14 -4 -25 -10 -25 -5 0 -10 -11 -10
-24 0 -13 -7 -26 -15 -30 -8 -3 -15 -15 -15 -26 0 -11 -4 -20 -10 -20 -5 0
-10 -14 -10 -30 0 -18 -6 -33 -15 -36 -8 -4 -15 -17 -15 -30 0 -13 -4 -24 -10
-24 -5 0 -10 -9 -10 -19 0 -11 -8 -34 -17 -53 -31 -61 -33 -68 -33 -87 0 -10
-7 -24 -15 -31 -8 -7 -15 -23 -15 -36 0 -13 -4 -24 -10 -24 -5 0 -10 -16 -10
-35 0 -19 -4 -35 -10 -35 -5 0 -13 -18 -16 -40 -4 -22 -10 -40 -15 -40 -5 0
-9 -16 -9 -35 0 -19 -4 -35 -9 -35 -6 0 -13 -20 -17 -45 -3 -25 -10 -48 -15
-51 -5 -3 -9 -23 -9 -45 0 -21 -4 -39 -10 -39 -5 0 -10 -12 -10 -27 0 -16 -7
-41 -15 -57 -8 -15 -15 -46 -15 -67 0 -21 -4 -41 -10 -44 -5 -3 -10 -33 -10
-66 0 -46 -3 -59 -15 -59 -12 0 -15 -13 -15 -59 0 -33 -4 -63 -10 -66 -5 -3
-10 -37 -10 -74 0 -49 -4 -72 -15 -81 -11 -9 -15 -34 -15 -101 0 -48 -5 -91
-10 -94 -6 -4 -10 -80 -10 -196 0 -156 -3 -193 -15 -205 -20 -20 -20 -98 0
-114 8 -7 15 -25 15 -41 0 -16 5 -29 10 -29 6 0 10 -11 10 -24 0 -13 7 -26 15
-30 8 -3 15 -13 15 -22 0 -23 32 -94 42 -94 4 0 8 -7 8 -15 0 -17 18 -52 38
-73 6 -7 12 -20 12 -28 0 -8 5 -14 10 -14 6 0 10 -7 10 -15 0 -17 79 -148 92
-153 4 -2 8 -11 8 -20 1 -21 23 -52 39 -52 6 0 11 -9 11 -19 0 -11 16 -36 35
-55 19 -20 35 -43 35 -51 0 -9 7 -18 15 -21 8 -4 15 -11 15 -18 0 -6 11 -20
25 -30 14 -10 25 -26 25 -34 0 -8 16 -29 35 -48 19 -18 35 -37 35 -43 0 -6 7
-11 15 -11 8 0 15 -6 15 -14 0 -8 16 -31 35 -50 19 -20 35 -41 35 -46 0 -6 6
-10 13 -10 8 0 20 -11 27 -25 7 -14 19 -25 25 -25 6 0 18 -11 25 -25 7 -14 17
-25 22 -25 12 0 38 -26 38 -38 0 -5 11 -15 25 -22 14 -7 25 -19 25 -27 0 -7 4
-13 10 -13 5 0 27 -16 47 -35 20 -19 43 -35 50 -35 7 0 13 -7 13 -15 0 -8 5
-15 11 -15 6 0 25 -16 43 -35 19 -19 40 -35 48 -35 8 0 24 -11 34 -25 10 -14
24 -25 30 -25 7 0 14 -7 18 -15 3 -8 12 -15 21 -15 8 0 31 -16 51 -35 19 -19
44 -35 55 -35 10 0 19 -5 19 -11 0 -16 31 -38 53 -39 9 0 17 -4 17 -10 0 -5
17 -17 38 -27 20 -9 39 -20 42 -23 10 -12 60 -40 70 -40 6 0 21 -9 33 -20 12
-12 32 -23 44 -26 13 -4 23 -10 23 -15 0 -5 11 -9 24 -9 13 0 26 -7 30 -15 3
-8 15 -15 26 -15 11 0 20 -4 20 -10 0 -5 11 -10 24 -10 13 0 26 -7 30 -15 3
-8 16 -15 30 -15 14 0 28 -4 31 -10 3 -5 17 -10 31 -10 15 0 24 -6 24 -15 0
-9 9 -15 24 -15 14 0 28 -4 31 -10 3 -5 19 -10 35 -10 15 0 30 -7 34 -15 3 -8
16 -15 30 -15 14 0 28 -4 31 -10 3 -5 19 -10 34 -10 16 0 34 -7 41 -15 7 -8
25 -15 41 -15 15 0 31 -4 34 -10 3 -5 23 -10 45 -10 24 0 40 -5 44 -15 4 -10
20 -15 51 -15 25 0 45 -4 45 -10 0 -5 22 -10 49 -10 34 0 51 -4 55 -15 4 -11
21 -15 60 -15 30 0 58 -5 61 -10 3 -6 36 -10 73 -10 43 -1 74 -6 86 -15 15
-11 48 -15 122 -15 58 0 106 -4 109 -10 4 -6 98 -10 251 -10 156 0 244 4 244
10 0 6 45 10 114 10 89 0 118 3 130 15 10 11 36 15 85 15 41 0 71 4 71 10 0 6
27 10 60 10 47 0 60 3 60 15 0 11 13 15 54 15 30 0 58 5 61 10 3 6 24 10 46
10 28 0 39 4 39 15 0 11 12 15 44 15 25 0 48 5 51 10 3 6 20 10 36 10 17 0 32
6 35 15 4 9 19 15 39 15 19 0 37 5 40 10 3 6 17 10 31 10 15 0 24 6 24 15 0
10 11 15 35 15 19 0 35 5 35 10 0 6 11 10 25 10 16 0 25 6 25 15 0 10 10 15
34 15 19 0 38 5 41 10 3 6 15 10 26 10 11 0 22 7 25 15 4 8 17 15 30 15 13 0
24 5 24 10 0 6 9 10 20 10 11 0 23 7 26 15 5 11 22 15 64 15 42 0 59 -4 64
-15 3 -8 15 -15 26 -15 11 0 20 -6 20 -13 0 -7 11 -24 25 -39 14 -15 25 -36
25 -48 0 -11 7 -20 15 -20 9 0 15 -9 15 -25 0 -14 5 -25 10 -25 6 0 10 -11 10
-25 0 -16 6 -25 15 -25 10 0 15 -10 15 -34 0 -19 5 -38 10 -41 6 -3 10 -21 10
-39 0 -18 7 -41 15 -52 9 -11 14 -42 15 -76 0 -32 5 -58 10 -58 6 0 10 -11 10
-25 0 -14 4 -25 9 -25 5 0 19 -11 32 -25 21 -21 33 -25 92 -25 38 0 67 -4 67
-10 0 -6 30 -10 70 -10 40 0 70 4 70 10 0 6 43 10 110 10 89 0 112 3 116 15 4
10 20 15 49 15 24 0 47 5 50 10 3 6 22 10 41 10 24 0 34 5 34 15 0 10 11 15
35 15 19 0 35 5 35 10 0 6 11 10 25 10 14 0 25 4 25 10 0 5 11 12 25 16 14 3
25 10 25 15 0 5 10 9 21 9 12 0 32 11 45 25 13 14 31 25 41 25 10 0 27 11 37
25 10 14 26 25 34 25 8 0 29 16 48 35 18 19 37 35 43 35 6 0 11 6 11 13 0 6
16 22 35 35 19 12 35 29 35 37 0 8 7 15 15 15 8 0 15 5 15 11 0 6 16 25 35 43
19 19 35 36 35 40 0 7 10 20 38 51 6 7 12 18 12 24 0 6 4 11 10 11 5 0 12 11
16 25 3 14 10 25 15 25 5 0 9 9 9 19 0 10 7 21 15 25 8 3 15 14 15 25 0 11 5
23 10 26 6 3 10 13 10 21 0 9 7 22 15 30 8 9 15 24 15 35 0 10 5 19 10 19 6 0
10 16 10 35 0 19 4 35 10 35 5 0 12 17 15 38 3 20 10 45 16 54 5 10 9 43 9 73
0 30 5 55 10 55 6 0 10 40 10 100 0 82 3 100 15 100 8 0 15 7 15 15 0 8 5 15
10 15 6 0 10 7 10 15 0 9 7 18 15 21 8 4 15 11 15 16 0 6 11 21 25 34 14 13
25 30 25 39 0 8 5 15 10 15 6 0 10 6 10 14 0 8 7 16 15 20 8 3 15 15 15 26 0
11 5 20 10 20 6 0 10 11 10 25 0 16 6 25 15 25 9 0 15 9 15 25 0 14 5 25 10
25 6 0 10 11 10 25 0 16 6 25 15 25 9 0 15 9 15 25 0 14 5 25 10 25 6 0 10 14
10 30 0 18 6 33 15 36 9 4 15 19 15 39 0 19 4 37 10 40 5 3 10 21 10 38 0 18
7 41 15 51 9 12 15 42 15 78 0 32 4 58 10 58 6 0 10 88 10 245 0 157 -4 245
-10 245 -5 0 -10 22 -10 49 0 31 -6 55 -15 65 -8 8 -15 31 -15 50 0 20 -4 36
-10 36 -5 0 -10 14 -10 30 0 18 -6 33 -15 36 -8 4 -15 17 -15 30 0 13 -4 24
-10 24 -5 0 -10 11 -10 24 0 14 -7 31 -15 40 -8 8 -15 24 -15 35 0 12 -3 21
-8 21 -7 0 -25 30 -38 63 -3 9 -10 17 -15 17 -5 0 -9 9 -9 20 0 11 -7 23 -15
26 -8 4 -15 12 -15 20 0 8 -4 14 -10 14 -5 0 -10 9 -10 20 0 11 -7 20 -15 20
-8 0 -15 5 -15 10 0 6 -11 23 -25 38 -14 15 -25 32 -25 39 0 7 -4 13 -10 13
-5 0 -10 7 -10 15 0 8 -5 15 -11 15 -14 0 -39 25 -39 39 0 6 -5 11 -11 11 -13
0 -39 25 -39 38 0 5 -11 15 -25 22 -14 7 -25 19 -25 27 0 7 -4 13 -8 13 -5 0
-24 15 -43 33 -19 18 -42 36 -51 40 -10 3 -18 11 -18 17 0 5 -7 10 -15 10 -8
0 -15 5 -15 10 0 6 -5 10 -11 10 -6 0 -17 6 -24 13 -33 29 -45 37 -55 37 -5 0
-10 4 -10 10 0 5 -11 12 -25 16 -14 3 -25 10 -25 15 0 5 -11 9 -25 9 -16 0
-25 6 -25 15 0 8 -7 15 -15 15 -8 0 -15 5 -15 10 0 6 -9 10 -19 10 -11 0 -22
4 -25 9 -3 4 -27 16 -53 26 -26 9 -71 28 -100 41 -28 13 -63 24 -77 24 -14 0
-26 4 -26 9 0 6 -20 13 -45 17 -25 3 -45 10 -45 15 0 5 -27 9 -60 9 -33 0 -60
4 -60 10 0 6 -36 10 -89 10 -66 0 -92 4 -101 15 -10 12 -40 15 -152 15 -111 0
-143 -3 -154 -15 -12 -11 -39 -15 -109 -15 -52 0 -97 -4 -100 -10 -3 -5 -31
-10 -61 -10 -30 0 -54 -4 -54 -10 0 -5 -12 -10 -27 -10 -16 0 -41 -7 -57 -15
-15 -8 -41 -15 -57 -15 -16 0 -29 -4 -29 -10 0 -5 -8 -10 -18 -10 -10 0 -27
-7 -38 -15 -10 -8 -29 -15 -41 -15 -13 0 -23 -4 -23 -10 0 -5 -9 -10 -20 -10
-11 0 -23 -7 -26 -15 -4 -8 -17 -15 -30 -15 -13 0 -24 -4 -24 -10 0 -5 -6 -10
-14 -10 -8 0 -21 -6 -28 -13 -7 -7 -30 -21 -50 -30 -21 -10 -38 -21 -38 -26 0
-4 -16 -13 -35 -21 -19 -8 -35 -20 -35 -27 0 -7 -7 -13 -15 -13 -8 0 -15 -4
-15 -10 0 -5 -6 -10 -13 -10 -8 0 -37 -22 -66 -50 -29 -27 -56 -50 -60 -50 -5
0 -39 -29 -76 -65 -65 -63 -85 -76 -85 -54 0 14 -25 39 -39 39 -6 0 -11 5 -11
11 0 16 -31 38 -52 39 -10 0 -18 7 -18 15 0 8 -5 15 -10 15 -6 0 -22 11 -36
25 -14 14 -31 25 -39 25 -8 0 -15 5 -15 10 0 6 -5 10 -11 10 -6 0 -25 11 -43
25 -18 14 -40 25 -48 25 -9 0 -18 7 -22 15 -3 8 -15 15 -26 15 -11 0 -20 5
-20 10 0 6 -8 10 -19 10 -10 0 -24 7 -31 15 -7 8 -21 15 -31 15 -11 0 -19 5
-19 10 0 6 -9 10 -21 10 -11 0 -27 7 -35 15 -9 8 -29 15 -45 15 -16 0 -29 5
-29 10 0 6 -15 10 -34 10 -19 0 -36 5 -38 12 -7 20 -109 31 -342 35 -150 2
-233 0 -240 -7 -5 -5 -35 -10 -66 -10 -34 0 -64 -6 -76 -15 -10 -8 -38 -15
-61 -15 -23 0 -45 -4 -48 -10 -3 -5 -19 -10 -34 -10 -16 0 -34 -7 -41 -15 -7
-8 -28 -15 -46 -15 -19 0 -34 -4 -34 -10 0 -5 -11 -10 -24 -10 -14 0 -32 -7
-40 -16 -14 -13 -16 -13 -16 -1 0 8 7 17 15 21 9 3 15 18 15 36 0 16 5 30 10
30 6 0 10 18 10 39 0 25 5 41 15 45 9 3 15 18 15 40 0 19 5 38 10 41 6 3 10
23 10 44 0 22 6 44 15 51 10 8 15 30 15 61 0 27 5 49 10 49 6 0 10 24 10 54 0
35 5 58 15 66 10 8 15 31 15 71 0 32 5 61 10 64 6 3 10 42 10 86 0 62 3 81 15
85 12 5 15 25 15 90 0 49 4 84 10 84 6 0 10 35 10 86 0 63 4 89 15 100 11 11
15 38 15 100 0 49 4 84 10 84 6 0 10 30 10 69 0 49 4 72 15 81 9 8 15 29 15
56 0 23 5 46 10 49 6 3 10 26 10 50 0 29 5 45 15 49 9 3 15 18 15 36 0 16 5
30 10 30 6 0 10 11 10 25 0 14 4 25 9 25 5 0 12 11 15 25 4 14 11 25 16 25 6
0 10 7 10 15 0 12 19 15 109 15 l110 0 3 -162 c2 -118 6 -162 16 -166 6 -2 12
-10 12 -18 0 -24 38 -54 69 -54 16 0 31 -6 34 -12 3 -10 97 -13 427 -13 330 0
424 3 428 13 2 8 24 12 62 12 32 0 62 5 65 10 3 6 15 10 26 10 11 0 22 7 25
15 4 8 15 15 26 15 11 0 26 6 33 13 31 27 44 37 50 37 12 0 81 76 101 110 10
19 25 41 32 48 6 7 12 20 12 28 0 8 5 14 10 14 6 0 10 15 10 34 0 19 6 36 13
38 8 3 13 37 15 109 2 57 8 108 13 113 5 6 9 99 9 207 0 147 3 198 12 201 18
6 18 202 1 219 -7 7 -13 30 -13 51 0 21 -4 38 -10 38 -5 0 -10 11 -10 24 0 14
-6 31 -13 38 -7 7 -19 27 -26 45 -7 17 -24 40 -37 50 -13 10 -24 23 -24 30 0
7 -5 13 -11 13 -14 0 -39 25 -39 39 0 6 -6 11 -13 11 -7 0 -21 11 -31 25 -10
14 -27 25 -37 25 -11 0 -19 5 -19 10 0 6 -11 10 -24 10 -13 0 -26 7 -30 15 -3
9 -19 15 -41 15 -19 0 -35 5 -35 10 0 6 -30 10 -71 10 -49 0 -75 4 -85 15 -13
13 -70 15 -390 15 -324 0 -375 -2 -380 -15z"/>
<path d="M6270 5430 c0 -5 -10 -10 -22 -10 -23 0 -78 -46 -78 -66 0 -6 -7 -17
-15 -24 -12 -10 -15 -38 -15 -136 0 -71 -4 -125 -10 -129 -5 -3 -10 -24 -10
-45 0 -21 5 -42 10 -45 6 -3 10 -17 10 -31 0 -14 7 -27 15 -30 8 -4 15 -12 15
-18 0 -19 72 -46 123 -46 26 0 47 5 47 10 0 6 8 10 18 10 16 0 52 32 52 46 0
3 7 12 15 20 11 11 15 38 15 100 0 49 4 84 10 84 6 0 10 43 10 110 0 67 -4
110 -10 110 -5 0 -10 8 -10 17 0 24 -48 63 -77 63 -12 0 -23 5 -23 10 0 6 -16
10 -35 10 -19 0 -35 -4 -35 -10z"/>
<path d="M5528 5360 c-27 -28 -28 -31 -28 -149 0 -69 4 -122 10 -126 6 -3 10
-35 10 -70 0 -47 4 -64 15 -69 8 -3 15 -16 15 -28 1 -26 32 -68 52 -68 7 0 22
-7 32 -15 26 -20 95 -20 102 0 4 8 15 15 27 15 11 0 33 14 49 32 26 30 28 37
28 120 0 52 -4 88 -10 88 -6 0 -10 30 -10 70 0 54 -4 72 -15 76 -10 4 -15 20
-15 48 0 32 -7 50 -28 74 -28 32 -30 32 -118 32 -85 -1 -90 -2 -116 -30z"/>
<path d="M6910 5280 c0 -5 -11 -10 -25 -10 -14 0 -25 -5 -25 -11 0 -6 -6 -17
-14 -25 -8 -8 -19 -14 -25 -14 -6 0 -11 -11 -11 -25 0 -14 -4 -25 -10 -25 -5
0 -10 -12 -10 -26 0 -14 -7 -32 -15 -40 -8 -9 -15 -26 -15 -40 0 -13 -4 -24
-10 -24 -5 0 -10 -16 -10 -35 0 -24 -5 -35 -15 -35 -12 0 -15 -16 -15 -85 0
-69 3 -85 15 -85 8 0 15 -9 15 -19 0 -11 9 -23 22 -27 12 -3 28 -13 36 -20 8
-8 34 -14 62 -14 28 0 54 6 62 14 8 7 24 17 36 20 13 4 22 16 22 27 0 10 7 19
15 19 9 0 15 9 15 25 0 14 5 25 10 25 6 0 10 13 10 29 0 16 6 31 15 35 8 3 15
16 15 30 0 14 5 28 10 31 6 3 10 22 10 41 0 24 5 34 15 34 12 0 15 15 15 74 0
69 -2 76 -33 110 -18 20 -41 36 -50 36 -9 0 -19 5 -22 10 -3 6 -26 10 -51 10
-24 0 -44 -4 -44 -10z"/>
<path d="M4930 5181 c0 -5 -9 -11 -20 -14 -11 -3 -23 -13 -27 -24 -3 -10 -12
-22 -20 -26 -20 -12 -18 -136 2 -143 8 -4 15 -17 15 -30 0 -13 5 -24 10 -24 6
0 10 -9 10 -20 0 -11 7 -23 15 -26 8 -4 15 -17 15 -30 0 -13 5 -24 10 -24 6 0
10 -9 10 -19 0 -11 4 -22 9 -26 6 -3 20 -26 32 -50 12 -25 28 -45 35 -45 6 0
17 -7 24 -15 9 -11 32 -15 80 -15 51 0 69 4 74 15 3 8 12 15 20 15 26 0 46 59
46 136 0 40 -4 76 -10 79 -5 3 -10 15 -10 26 0 11 -7 22 -15 25 -8 4 -15 12
-15 20 0 8 -4 22 -9 32 -5 9 -12 24 -15 32 -4 8 -15 29 -25 45 -11 17 -20 35
-20 42 -1 7 -14 26 -31 43 -28 28 -33 30 -110 30 -44 0 -80 -4 -80 -9z"/>
<path d="M7480 4960 c0 -5 -8 -10 -17 -10 -19 0 -83 -67 -83 -87 0 -7 -4 -13
-10 -13 -5 0 -10 -7 -10 -15 0 -8 -7 -15 -15 -15 -8 0 -15 -7 -15 -15 0 -8 -4
-15 -10 -15 -5 0 -10 -9 -10 -20 0 -11 -7 -20 -15 -20 -8 0 -15 -7 -15 -15 0
-8 -4 -15 -10 -15 -5 0 -10 -6 -10 -14 0 -7 -7 -19 -15 -26 -11 -9 -15 -33
-15 -85 0 -69 1 -73 37 -108 36 -36 38 -37 116 -37 l81 0 43 46 c24 26 43 55
43 65 0 11 5 19 11 19 16 0 39 26 39 45 0 8 7 18 15 21 8 4 15 11 15 18 0 6
11 20 25 30 14 10 25 27 25 37 0 10 5 21 10 24 6 3 10 31 10 61 0 30 -4 54
-10 54 -5 0 -10 8 -10 18 0 21 -42 62 -64 62 -9 0 -16 5 -16 10 0 6 -27 10
-60 10 -33 0 -60 -4 -60 -10z"/>
</g>
</svg>
